# xmcd
# 
# Track frame offsets:
#     150
#     19820
#     38736
#     57961
#     76264
#     91005
#     107896
#     126021
#     155088
#     169070
#     186783
#     199172
# 
# Disc length: 2918
# 
# Revision: 0
# Processed by: cddbd v1.5.2PL0 Copyright (c) Steve Scherf et al.
# Submitted via: fre:ac v1.0.31
# 
DISCID=950b640c
DTITLE=Various Artist - True Blue a perfect pick
DYEAR=2006
DGENRE=Blues
TTITLE0=Lara Price - Faces of the Blues
TTITLE1=Johnny Tucker - I Wish It Would Rain
TTITLE2=Jeff Richman - On My Knees
TTITLE3=Annica - Been Think'n 'Bout You
TTITLE4=Robert Studenny - Urban Boy Blues
TTITLE5=Lara Price - I Wanna Man
TTITLE6=Johnny Tucker - A Woman Gotta Have It
TTITLE7=Lara Price - When Where and Why
TTITLE8=Johnny Tucker - Gotta Find My Baby
TTITLE9=Patti Zalket - I'm Free
TTITLE10=Lara Price - Woman Down
TTITLE11=Johnny Tucker - Everywhere I Go
EXTD=promo album
EXTT0=
EXTT1=
EXTT2=
EXTT3=
EXTT4=
EXTT5=
EXTT6=
EXTT7=
EXTT8=
EXTT9=
EXTT10=
EXTT11=
PLAYORDER=
